<svg width="172" height="173" viewBox="0 0 172 173" fill="none" xmlns="http://www.w3.org/2000/svg">
<circle cx="87" cy="85" r="31.5" stroke="#2858FF"/>
<path d="M100 77L83.75 93.25L74 83.5" stroke="#2858FF" stroke-width="2" stroke-linecap="round" stroke-linejoin="round"/>
<path d="M138.452 85.2431L157.499 98.2293L156.987 101.155L134.658 106.934L135.2 103.831L155.694 98.7968L155.487 99.9789L137.919 88.2869L138.452 85.2431ZM142.925 90.1371L145.15 91.3485L143.113 102.992L140.599 103.435L142.925 90.1371Z" fill="#040628"/>
<path d="M134.202 105.699L148.236 113.173L144.767 119.687C143.893 121.328 142.889 122.448 141.755 123.045C140.629 123.669 139.493 123.676 138.346 123.065C137.198 122.454 136.546 121.529 136.39 120.29C136.242 119.078 136.559 117.74 137.339 116.275L137.816 117.039C136.923 118.716 135.951 119.796 134.901 120.279C133.851 120.762 132.725 120.684 131.525 120.044C130.307 119.396 129.598 118.429 129.398 117.145C129.207 115.887 129.609 114.323 130.606 112.451L134.202 105.699ZM134.836 109.232L132.664 113.31C132.1 114.369 131.836 115.248 131.872 115.947C131.925 116.655 132.314 117.202 133.037 117.587C133.779 117.982 134.449 118.021 135.047 117.706C135.654 117.417 136.235 116.752 136.79 115.71L139.046 111.474L134.836 109.232ZM140.873 112.447L138.842 116.26C138.325 117.231 138.112 118.057 138.202 118.74C138.3 119.449 138.675 119.978 139.329 120.325C139.999 120.683 140.639 120.694 141.247 120.361C141.845 120.045 142.403 119.402 142.92 118.431L144.951 114.618L140.873 112.447Z" fill="#040628"/>
<path d="M124.317 121.191L134.7 130.775L133.66 130.795L138.096 125.99L139.948 127.699L130.099 138.368L128.247 136.659L132.663 131.875L132.746 132.891L122.363 123.307L124.317 121.191Z" fill="#040628"/>
<path d="M112.964 130.577C114.314 129.719 115.699 129.252 117.121 129.177C118.543 129.101 119.886 129.385 121.148 130.028C122.421 130.688 123.476 131.676 124.314 132.992C125.162 134.325 125.61 135.699 125.657 137.115C125.705 138.531 125.388 139.859 124.707 141.098C124.036 142.354 123.026 143.412 121.676 144.271C120.343 145.119 118.966 145.58 117.544 145.656C116.116 145.758 114.779 145.483 113.533 144.829C112.282 144.203 111.226 143.215 110.367 141.865C109.519 140.532 109.071 139.158 109.024 137.742C108.96 136.337 109.271 135.001 109.958 133.734C110.629 132.478 111.631 131.426 112.964 130.577ZM114.316 132.704C113.456 133.251 112.811 133.934 112.383 134.751C111.939 135.58 111.748 136.472 111.81 137.427C111.884 138.4 112.221 139.358 112.823 140.303C113.435 141.265 114.155 141.969 114.983 142.413C115.822 142.875 116.711 143.08 117.65 143.028C118.572 142.987 119.463 142.692 120.323 142.145C121.184 141.597 121.828 140.914 122.256 140.097C122.684 139.279 122.875 138.387 122.829 137.421C122.794 136.471 122.471 135.516 121.859 134.554C121.257 133.609 120.523 132.903 119.657 132.435C118.801 131.984 117.912 131.779 116.99 131.82C116.068 131.862 115.177 132.156 114.316 132.704Z" fill="#040628"/>
<path d="M105.813 135.396L109.327 150.903L106.43 151.559L97.1605 141.601L98.3308 141.336L94.0831 154.357L91.4498 154.953L87.9362 139.446L90.4817 138.87L93.2793 151.217L92.7515 151.059L96.6726 139.313L97.9015 139.034L106.579 148.142L106.049 148.385L103.238 135.979L105.813 135.396Z" fill="#040628"/>
<path d="M78.8782 138.104C80.4668 138.295 81.8349 138.812 82.9827 139.655C84.1304 140.497 84.989 141.567 85.5584 142.865C86.1255 144.182 86.3161 145.614 86.1301 147.163C85.9418 148.732 85.4175 150.079 84.5572 151.205C83.697 152.33 82.6107 153.157 81.2985 153.684C79.9839 154.231 78.5323 154.409 76.9437 154.219C75.375 154.03 74.0168 153.515 72.869 152.672C71.6991 151.847 70.8393 150.787 70.2897 149.492C69.7178 148.215 69.5273 146.782 69.718 145.193C69.9063 143.624 70.4306 142.277 71.2909 141.152C72.1313 140.024 73.2187 139.188 74.5532 138.643C75.8678 138.096 77.3094 137.916 78.8782 138.104ZM78.5778 140.606C77.5651 140.485 76.6342 140.605 75.785 140.966C74.9161 141.325 74.2032 141.894 73.6463 142.673C73.0871 143.472 72.7407 144.428 72.6072 145.54C72.4714 146.672 72.5829 147.672 72.9419 148.541C73.2985 149.43 73.8565 150.152 74.6158 150.706C75.3553 151.258 76.2314 151.595 77.2441 151.717C78.2568 151.838 79.1877 151.718 80.0369 151.357C80.886 150.996 81.5989 150.427 82.1756 149.65C82.7499 148.893 83.105 147.948 83.2409 146.816C83.3744 145.704 83.2541 144.693 82.88 143.782C82.5036 142.891 81.9456 142.169 81.2061 141.617C80.4667 141.065 79.5906 140.728 78.5778 140.606Z" fill="#040628"/>
<path d="M63.4604 133.593C64.6644 134.135 65.6454 134.806 66.4034 135.607C67.1433 136.401 67.6734 137.319 67.9938 138.362C68.306 139.423 68.3771 140.606 68.207 141.911C68.0105 143.226 67.5596 144.668 66.8542 146.237C66.2966 147.477 65.6868 148.541 65.0251 149.428C64.3633 150.314 63.6596 151.05 62.9138 151.636C62.1498 152.214 61.3397 152.65 60.4835 152.945C59.6091 153.231 58.7068 153.385 57.7766 153.405C56.82 153.435 55.8315 153.342 54.8109 153.124L47.5251 151.625L48.2369 149.017L54.9291 150.447C55.3267 150.538 55.8137 150.626 56.3901 150.709C56.9664 150.793 57.5888 150.799 58.2572 150.727C58.9174 150.673 59.5945 150.484 60.2883 150.16C60.9822 149.836 61.6587 149.306 62.3177 148.572C62.9686 147.856 63.5729 146.878 64.1306 145.637C64.2864 145.291 64.3962 145.022 64.46 144.832C64.5238 144.641 64.5875 144.45 64.6513 144.26C64.6968 144.061 64.7925 143.775 64.9383 143.402L65.5284 145.016C64.7854 145.888 63.9266 146.554 62.9519 147.015C61.9772 147.476 60.9528 147.706 59.8785 147.706C58.7778 147.715 57.6894 147.478 56.6132 146.994C55.2633 146.387 54.1997 145.558 53.4224 144.507C52.6269 143.448 52.1578 142.272 52.0151 140.98C51.8724 139.688 52.0963 138.385 52.6868 137.071C53.2855 135.74 54.1419 134.689 55.256 133.918C56.3437 133.157 57.5974 132.734 59.0172 132.648C60.4289 132.581 61.9099 132.896 63.4604 133.593ZM62.23 135.672C61.2997 135.253 60.3887 135.085 59.4968 135.166C58.5968 135.266 57.7903 135.572 57.0774 136.085C56.3562 136.616 55.7988 137.319 55.4051 138.195C55.0115 139.071 54.8636 139.936 54.9614 140.791C55.0593 141.647 55.3778 142.426 55.917 143.129C56.448 143.85 57.1968 144.428 58.1636 144.862C59.0757 145.273 59.9827 145.45 60.8845 145.395C61.7782 145.358 62.5774 145.093 63.2822 144.598C63.9787 144.122 64.5238 143.446 64.9175 142.57C65.3111 141.695 65.4713 140.802 65.3981 139.892C65.2984 138.992 64.9871 138.172 64.4644 137.433C63.9234 136.685 63.1786 136.098 62.23 135.672Z" fill="#040628"/>
<path d="M55.9042 130.12L45.2475 141.92L43.1101 139.989L50.8714 131.395L35.8741 133.455L33.9371 131.705L44.5939 119.905L46.7312 121.835L38.9699 130.43L53.9449 128.35L55.9042 130.12Z" fill="#040628"/>
<path d="M45.1581 120.95L42.9704 122.023C42.9169 121.892 42.8685 121.769 42.8251 121.656C42.7817 121.542 42.7347 121.442 42.6841 121.356C42.3607 120.804 41.9181 120.483 41.3565 120.395C40.7848 120.29 40.1428 120.341 39.4305 120.55C38.701 120.769 37.9192 121.076 37.0849 121.472C36.2506 121.868 35.4265 122.281 34.6124 122.712L29.4024 125.451L23.2308 114.915L36.9502 106.879L38.4059 109.364L26.1361 116.551L26.5122 115.531L30.6366 122.572L29.5524 122.442L33.4637 120.394C34.702 119.739 35.888 119.171 37.0215 118.693C38.1551 118.214 39.2047 117.889 40.1704 117.717C41.1259 117.529 41.9747 117.553 42.7165 117.791C43.4482 118.011 44.0416 118.509 44.4965 119.286C44.6279 119.51 44.7435 119.767 44.8434 120.056C44.9504 120.318 45.0553 120.616 45.1581 120.95Z" fill="#040628"/>
<path d="M24.3168 100.096C23.8525 98.1297 23.9303 96.5244 24.5502 95.2797C25.1701 94.035 26.2762 93.2162 27.8685 92.8234C29.5384 92.4115 30.9686 92.6561 32.1591 93.5572C33.3302 94.4631 34.1598 95.9476 34.6482 98.0107L36.2716 104.717L20.8343 108.525L20.1446 105.729L25.3583 104.443L24.3168 100.096ZM32.5794 98.7682C32.2874 97.5013 31.8003 96.612 31.1179 96.1006C30.4308 95.5697 29.5727 95.4312 28.5435 95.6851C27.5338 95.9341 26.8749 96.4366 26.567 97.1923C26.259 97.9481 26.2534 98.9691 26.5501 100.255L27.3972 103.94L33.4556 102.445L32.5794 98.7682Z" fill="#040628"/>
<path d="M33.0572 84.9707L17.3362 82.5917L18.4404 75.2948C18.7187 73.4557 19.2931 72.066 20.1636 71.1257C21.0173 70.1626 22.0869 69.7783 23.3722 69.9728C24.6576 70.1673 25.5799 70.8227 26.1392 71.9389C26.6817 73.0324 26.8288 74.3998 26.5804 76.0411L25.8765 75.4795C26.1608 73.6009 26.7178 72.2591 27.5476 71.4542C28.3774 70.6493 29.4646 70.3486 30.8093 70.5521C32.1737 70.7586 33.1638 71.4343 33.7794 72.5793C34.3782 73.7015 34.519 75.3107 34.2018 77.4068L33.0572 84.9707ZM31.2842 81.8503L31.9754 77.2823C32.155 76.0958 32.1116 75.179 31.8455 74.5319C31.5595 73.8818 31.0112 73.4954 30.2004 73.3727C29.3698 73.247 28.7248 73.4326 28.2653 73.9295C27.789 74.4035 27.4626 75.2239 27.286 76.3906L26.5678 81.1366L31.2842 81.8503ZM24.5212 80.8269L25.1675 76.5555C25.3321 75.4679 25.2585 74.6173 24.9468 74.0038C24.6183 73.3675 24.0883 72.9939 23.3566 72.8832C22.6051 72.7695 21.9982 72.971 21.5357 73.4876C21.0762 73.9844 20.7641 74.7766 20.5995 75.8643L19.9532 80.1356L24.5212 80.8269Z" fill="#040628"/>
<path d="M37.4995 65.1375L24.0535 56.6514L25.5906 54.2159L31.2988 57.8185L36.1343 50.1568L30.426 46.5542L31.9632 44.1187L45.4092 52.6048L43.8721 55.0403L38.24 51.4858L33.4045 59.1475L39.0366 62.702L37.4995 65.1375Z" fill="#040628"/>
<path d="M54.2141 44.8889L52.0079 42.3548L51.4811 41.9781L47.7186 37.6565C46.9175 36.7363 46.0287 36.2638 45.0523 36.2388C44.0779 36.1855 43.0551 36.6251 41.9842 37.5575C41.2752 38.1748 40.6864 38.8995 40.2177 39.7319C39.7359 40.5491 39.4319 41.3574 39.3058 42.1567L36.9824 41.3155C37.1675 40.2793 37.5783 39.2587 38.2148 38.2537C38.8533 37.2205 39.6477 36.2902 40.598 35.4629C42.2422 34.0314 43.8573 33.328 45.4433 33.3526C47.0293 33.3773 48.538 34.2117 49.9695 35.8559L56.2731 43.0963L54.2141 44.8889ZM50.3954 48.4523C49.5054 49.2271 48.5897 49.7592 47.6482 50.0484C46.7219 50.3246 45.8479 50.3563 45.0262 50.1435C44.1914 49.9157 43.4785 49.4624 42.8876 48.7836C42.3229 48.1349 41.9615 47.4153 41.8036 46.6247C41.6607 45.821 41.7983 44.9587 42.2164 44.0378C42.6496 43.1038 43.462 42.1181 44.6536 41.0806L48.4549 37.7712L49.8141 39.3324L46.1034 42.563C45.0173 43.5086 44.4433 44.3265 44.3814 45.0169C44.3195 45.7072 44.5118 46.3088 44.9583 46.8217C45.4704 47.4099 46.1179 47.6815 46.9007 47.6365C47.6704 47.5763 48.47 47.185 49.2997 46.4628C50.1142 45.7536 50.6656 44.9553 50.9538 44.068C51.257 43.1676 51.2424 42.2522 50.9098 41.3219L52.6398 42.441C52.9705 43.3995 52.9576 44.4051 52.6013 45.4578C52.2318 46.4954 51.4965 47.4936 50.3954 48.4523Z" fill="#040628"/>
<path d="M55.1327 43.31L54.2834 41.0262C54.419 40.986 54.5455 40.95 54.6629 40.9181C54.7804 40.8863 54.8845 40.8495 54.9754 40.8078C55.5572 40.5411 55.9199 40.1327 56.0638 39.5827C56.2258 39.0243 56.2385 38.3804 56.102 37.6509C55.9571 36.9032 55.7293 36.0946 55.4186 35.225C55.1078 34.3554 54.7788 33.4941 54.4317 32.6411L52.2261 27.1838L63.3247 22.0942L69.9525 36.5469L67.3346 37.7474L61.4071 24.8217L62.3845 25.2977L54.9672 28.6991L55.2045 27.6332L56.8519 31.7293C57.3809 33.0269 57.827 34.2635 58.1901 35.4392C58.5532 36.6148 58.772 37.6916 58.8464 38.6696C58.9391 39.6393 58.8302 40.4813 58.5197 41.1957C58.2274 41.9018 57.6723 42.4425 56.8542 42.8176C56.6178 42.926 56.3508 43.0155 56.0531 43.086C55.7819 43.1663 55.4751 43.241 55.1327 43.31Z" fill="#040628"/>
<path d="M71.7834 35.9433L69.8883 20.1566L72.7478 19.8133L74.128 31.3108L82.4283 18.6512L85.0196 18.3401L86.9148 34.1268L84.0553 34.4701L82.6751 22.9726L74.4046 35.6286L71.7834 35.9433Z" fill="#040628"/>
<path d="M99.8439 29.8539C98.9447 30.0929 98.0307 30.2477 97.102 30.3184C96.1965 30.3731 95.2818 30.3142 94.3578 30.1416C92.4704 29.7891 91.0589 29.0676 90.1232 27.9773C89.2071 26.8906 88.9217 25.4233 89.2668 23.5752L90.2142 18.503L93.0453 19.0317L92.1309 23.9271C91.9216 25.0477 92.1114 25.9377 92.7004 26.597C93.309 27.26 94.2031 27.7017 95.3827 27.922C96.1298 28.0616 96.9149 28.1065 97.738 28.0568C98.5808 28.0107 99.4186 27.8824 100.251 27.6717L99.8439 29.8539ZM98.4422 36.2147L101.361 20.585L104.192 21.1138L101.273 36.7435L98.4422 36.2147Z" fill="#040628"/>
<path d="M103.398 37.3454L110.872 23.3112L113.414 24.6648L107.971 34.886L122.02 29.2476L124.323 30.4743L116.85 44.5085L114.308 43.1548L119.751 32.9337L105.729 38.5862L103.398 37.3454Z" fill="#040628"/>
<path d="M117.742 45.3147L129.187 34.2778L131.186 36.351L122.851 44.3892L137.954 43.3693L139.766 45.2481L128.321 56.285L126.321 54.2119L134.657 46.1737L119.574 47.2151L117.742 45.3147Z" fill="#040628"/>
</svg>
