<svg width="72" height="72" viewBox="0 0 72 72" fill="none" xmlns="http://www.w3.org/2000/svg">
<g clip-path="url(#clip0_27768_47913)">
<path d="M43.3577 46.3209L47.0491 28.9185C47.1998 28.1819 47.1119 27.6546 46.7854 27.3365C46.459 27.0184 46.0279 26.9598 45.4922 27.1607L23.7958 35.5229C23.3103 35.707 22.9796 35.9163 22.8039 36.1507C22.6281 36.385 22.6071 36.6069 22.7411 36.8161C22.875 37.0254 23.1429 37.1886 23.5446 37.3058L29.0943 39.0385L41.9766 30.9275C42.3281 30.6931 42.596 30.6429 42.7801 30.7768C42.8973 30.8605 42.8638 30.986 42.6797 31.1535L32.2584 40.5703L31.8566 46.2958C32.2416 46.2958 32.6183 46.1116 32.9866 45.7433L35.6987 43.1317L41.3237 47.2751C42.3951 47.8778 43.0731 47.5597 43.3577 46.3209ZM58.5 36C58.5 39.0469 57.9057 41.9598 56.7171 44.7388C55.5285 47.5179 53.9297 49.9118 51.9208 51.9208C49.9118 53.9297 47.5179 55.5285 44.7388 56.7171C41.9598 57.9057 39.0469 58.5 36 58.5C32.9531 58.5 30.0402 57.9057 27.2612 56.7171C24.4821 55.5285 22.0882 53.9297 20.0792 51.9208C18.0703 49.9118 16.4715 47.5179 15.2829 44.7388C14.0943 41.9598 13.5 39.0469 13.5 36C13.5 32.9531 14.0943 30.0402 15.2829 27.2612C16.4715 24.4821 18.0703 22.0882 20.0792 20.0792C22.0882 18.0703 24.4821 16.4715 27.2612 15.2829C30.0402 14.0943 32.9531 13.5 36 13.5C39.0469 13.5 41.9598 14.0943 44.7388 15.2829C47.5179 16.4715 49.9118 18.0703 51.9208 20.0792C53.9297 22.0882 55.5285 24.4821 56.7171 27.2612C57.9057 30.0402 58.5 32.9531 58.5 36Z" fill="white"/>
</g>
<defs>
<clipPath id="clip0_27768_47913">
<rect width="45" height="45" fill="white" transform="translate(13.5 13.5)"/>
</clipPath>
</defs>
</svg>
