<svg width="72" height="72" viewBox="0 0 72 72" fill="none" xmlns="http://www.w3.org/2000/svg">
<path d="M54 18H18C15.525 18 13.5 20.025 13.5 22.5V49.5C13.5 51.975 15.525 54 18 54H54C56.475 54 58.5 51.975 58.5 49.5V22.5C58.5 20.025 56.475 18 54 18ZM53.1 27.5625L38.385 36.765C36.9225 37.6875 35.0775 37.6875 33.615 36.765L18.9 27.5625C18.6744 27.4358 18.4768 27.2647 18.3192 27.0595C18.1617 26.8543 18.0474 26.6193 17.9833 26.3686C17.9192 26.1179 17.9066 25.8569 17.9464 25.6012C17.9861 25.3455 18.0773 25.1006 18.2144 24.8812C18.3515 24.6618 18.5317 24.4725 18.7441 24.3247C18.9565 24.177 19.1967 24.0739 19.4501 24.0217C19.7035 23.9694 19.9649 23.9692 20.2184 24.0209C20.4719 24.0726 20.7123 24.1752 20.925 24.3225L36 33.75L51.075 24.3225C51.2877 24.1752 51.5281 24.0726 51.7816 24.0209C52.0351 23.9692 52.2965 23.9694 52.5499 24.0217C52.8033 24.0739 53.0435 24.177 53.2559 24.3247C53.4683 24.4725 53.6485 24.6618 53.7856 24.8812C53.9227 25.1006 54.0139 25.3455 54.0536 25.6012C54.0934 25.8569 54.0808 26.1179 54.0167 26.3686C53.9526 26.6193 53.8383 26.8543 53.6808 27.0595C53.5232 27.2647 53.3256 27.4358 53.1 27.5625V27.5625Z" fill="white"/>
</svg>
