<svg width="82" height="82" viewBox="0 0 82 82" fill="none" xmlns="http://www.w3.org/2000/svg">
<path d="M73.5382 43.447H63.6707C63.635 29.8789 52.6515 18.8842 39.0879 18.8307V8.96094C58.0997 9.01674 73.5025 24.424 73.5382 43.447Z" fill="#D9DAE0"/>
<path d="M38.9843 68.1952C52.6177 68.1952 63.6698 57.1431 63.6698 43.5097C63.6698 29.8763 52.6177 18.8242 38.9843 18.8242C25.3509 18.8242 14.2988 29.8763 14.2988 43.5097C14.2988 57.1431 25.3509 68.1952 38.9843 68.1952Z" fill="url(#paint0_linear_296_4515)"/>
<path d="M38.9849 68.2627C25.3364 68.2627 14.2324 57.1587 14.2324 43.5103C14.2324 29.8618 25.3364 18.7578 38.9849 18.7578C52.6333 18.7578 63.7373 29.8618 63.7373 43.5103C63.7373 57.1587 52.6333 68.2627 38.9849 68.2627ZM38.9849 18.8917C25.4101 18.8917 14.3663 29.9355 14.3663 43.5103C14.3663 57.085 25.4101 68.1288 38.9849 68.1288C52.5596 68.1288 63.6034 57.085 63.6034 43.5103C63.6034 29.9355 52.5596 18.8917 38.9849 18.8917V18.8917Z" fill="url(#paint1_linear_296_4515)"/>
<path d="M44.7151 49.2423C47.88 46.0774 47.88 40.9461 44.7151 37.7812C41.5502 34.6162 36.4189 34.6162 33.254 37.7812C30.0891 40.9461 30.0891 46.0774 33.254 49.2423C36.4189 52.4072 41.5502 52.4072 44.7151 49.2423Z" fill="white"/>
<defs>
<linearGradient id="paint0_linear_296_4515" x1="24.4601" y1="12.9377" x2="73.0547" y2="59.4579" gradientUnits="userSpaceOnUse">
<stop stop-color="#446BF8"/>
<stop offset="1" stop-color="#185EF1"/>
</linearGradient>
<linearGradient id="paint1_linear_296_4515" x1="14.2324" y1="43.5103" x2="63.7373" y2="43.5103" gradientUnits="userSpaceOnUse">
<stop stop-color="#C5FFFF"/>
<stop offset="1" stop-color="#B3D6D6"/>
</linearGradient>
</defs>
</svg>
