<svg width="311" height="32" viewBox="0 0 311 32" fill="none" xmlns="http://www.w3.org/2000/svg">
<g clip-path="url(#clip0_27644_47704)">
<path d="M227.496 0H219.883V32H227.496V0Z" fill="#040628"/>
<path d="M206.706 0H177.508V32H185.121V6.69435H205.761C206.538 6.72958 207.271 7.06261 207.809 7.62416C208.347 8.18572 208.647 8.93256 208.647 9.7093C208.647 10.486 208.347 11.2329 207.809 11.7944C207.271 12.356 206.538 12.689 205.761 12.7242H195.684C193.894 12.7775 192.183 13.4712 190.863 14.679C189.543 15.8868 188.701 17.5281 188.492 19.3035C188.284 21.0789 188.721 22.8701 189.725 24.3504C190.728 25.8307 192.232 26.9015 193.961 27.3674L213.412 32V25.2932L195.802 21.1139C195.576 21.0611 195.377 20.9271 195.244 20.7374C195.11 20.5477 195.051 20.3157 195.078 20.0855C195.105 19.8552 195.216 19.6429 195.389 19.489C195.563 19.3351 195.787 19.2504 196.02 19.2509H206.706C207.972 19.2509 209.225 19.0019 210.395 18.5181C211.564 18.0343 212.627 17.3252 213.521 16.4313C214.416 15.5374 215.126 14.4763 215.61 13.3085C216.094 12.1407 216.342 10.8892 216.341 9.62546V9.62546C216.342 8.36172 216.094 7.1102 215.61 5.94243C215.126 4.77465 214.416 3.7135 213.521 2.81961C212.627 1.92572 211.564 1.21662 210.395 0.732816C209.225 0.249015 207.972 -2.63345e-07 206.706 0V0Z" fill="#040628"/>
<path d="M261.243 0L250.719 31.6212L240.188 0H231.031L242.645 32H250.588H250.843H258.786L270.4 0H261.243Z" fill="#040628"/>
<path d="M281.016 25.4236V19.2882H311.116V12.7118H281.016V6.57636H311.116V0H281.016H273.402V6.57636V12.7118V19.2882V25.4236V32H281.016H311.116V25.4236H281.016Z" fill="#040628"/>
<path d="M164.212 0H135.039V32H164.212C165.48 32 166.735 31.7504 167.906 31.2655C169.077 30.7806 170.141 30.07 171.037 29.1742C171.932 28.2784 172.642 27.2151 173.125 26.0451C173.609 24.8752 173.856 23.6215 173.854 22.3559V9.61925C173.852 7.0675 172.836 4.62082 171.028 2.81704C169.22 1.01326 166.768 -5.31062e-07 164.212 0V0ZM166.29 15.9969V22.2876C166.29 23.0864 165.972 23.8525 165.406 24.4173C164.841 24.9821 164.073 25.2994 163.273 25.2994H142.634V6.66951H163.273C164.073 6.66951 164.841 6.98683 165.406 7.55166C165.972 8.11649 166.29 8.88256 166.29 9.68135V15.9969Z" fill="#040628"/>
<path d="M135.347 0H-127.016V32H135.347V0Z" fill="#003FFF"/>
<path d="M63.7029 21.413H56.9256L55.7281 24.5162H49.6133L57.4097 6.71094H63.3207L71.1171 24.5162H64.9004L63.7029 21.413ZM62.0468 17.0888L60.3143 12.6121L58.5817 17.0888H62.0468Z" fill="white"/>
<path d="M87.8225 19.8614V24.5162H71.4398V20.828L79.5929 11.3657H71.6946V6.71094H87.4148V10.3992L79.2617 19.8614H87.8225Z" fill="white"/>
<path d="M98.1036 24.9232C95.3689 24.9232 93.2372 24.1855 91.7085 22.7102C90.1798 21.2349 89.4155 19.1661 89.4155 16.5038V6.71094H95.4284V16.3258C95.4284 17.6315 95.6577 18.5811 96.1163 19.1746C96.5919 19.7681 97.2713 20.0649 98.1546 20.0649C99.0378 20.0649 99.7088 19.7681 100.167 19.1746C100.643 18.5811 100.881 17.6315 100.881 16.3258V6.71094H106.792V16.5038C106.792 19.1661 106.027 21.2349 104.499 22.7102C102.97 24.1855 100.838 24.9232 98.1036 24.9232Z" fill="white"/>
<path d="M117.192 20.0394H115.561V24.5162H109.548V6.71094H118.134C119.782 6.71094 121.217 6.98226 122.44 7.52489C123.663 8.06753 124.606 8.84757 125.268 9.86501C125.931 10.8825 126.262 12.0695 126.262 13.4261C126.262 14.6979 125.973 15.8086 125.396 16.7582C124.818 17.7078 123.986 18.4624 122.899 19.022L126.644 24.5162H120.224L117.192 20.0394ZM120.198 13.4261C120.198 12.7647 119.994 12.256 119.587 11.8999C119.179 11.5268 118.567 11.3403 117.752 11.3403H115.561V15.5118H117.752C118.567 15.5118 119.179 15.3338 119.587 14.9777C119.994 14.6046 120.198 14.0874 120.198 13.4261Z" fill="white"/>
</g>
<defs>
<clipPath id="clip0_27644_47704">
<rect width="311" height="32" fill="white"/>
</clipPath>
</defs>
</svg>
