<svg width="44" height="44" viewBox="0 0 44 44" fill="none" xmlns="http://www.w3.org/2000/svg">
<path d="M21.9999 7.76471C14.1231 7.76471 7.76465 14.1231 7.76465 22C7.76465 29.8769 14.1231 36.2353 21.9999 36.2353C29.8768 36.2353 36.2352 29.8769 36.2352 22C36.2352 14.1231 29.8768 7.76471 21.9999 7.76471ZM21.9999 9.43736C23.4235 9.43736 24.7996 9.69834 26.0689 10.1373L22.1542 18.5954C22.1067 18.6428 22.1067 18.7496 21.9999 18.7496C21.8932 18.7496 21.8932 18.6428 21.8457 18.5954L17.931 10.1373C19.2003 9.69834 20.5764 9.44922 21.9999 9.44922V9.43736ZM15.9499 11.0151L20.4815 20.7781C20.5764 20.9798 20.6832 21.0391 20.8137 21.0391H23.1862C23.3286 21.0391 23.4235 20.9798 23.5302 20.7781L28.0025 11.0151C29.8768 12.0827 31.4901 13.613 32.629 15.4399L26.2705 27.7416C26.2231 27.8483 26.1519 27.8958 26.1163 27.8958C26.0214 27.8958 26.0214 27.8009 25.9621 27.7416L23.5302 22.3559C23.4235 22.1542 23.3286 22.1068 23.1862 22.1068H20.8137C20.6832 22.1068 20.5764 22.1542 20.4696 22.3559L18.0378 27.7416C17.9785 27.8009 17.9903 27.8958 17.8836 27.8958C17.7768 27.8958 17.7768 27.8009 17.7294 27.7416L11.3235 15.4399C12.4386 13.613 14.0756 12.0827 15.9499 11.0151V11.0151ZM10.2084 17.8836L17.5277 32.1189C17.6226 32.3206 17.7294 32.4748 17.9903 32.4748C18.2395 32.4748 18.3344 32.3206 18.4411 32.1189L21.8457 24.5386C21.8932 24.4437 21.9525 24.3726 21.9999 24.3726C22.1067 24.3726 22.1067 24.4912 22.1542 24.5386L25.6062 32.1189C25.713 32.3206 25.8079 32.4748 26.0689 32.4748C26.318 32.4748 26.4247 32.3206 26.5196 32.1189L33.8627 17.8836C34.3016 19.1529 34.5626 20.529 34.5626 22C34.5033 28.8685 28.8685 34.5627 21.9999 34.5627C15.1314 34.5627 9.49661 28.8685 9.49661 22C9.49661 20.5765 9.74573 19.2123 10.2084 17.8836Z" fill="black"/>
</svg>
