<svg width="82" height="82" viewBox="0 0 82 82" fill="none" xmlns="http://www.w3.org/2000/svg">
<path d="M70.7517 18.2751V48.0272C70.7517 51.6429 67.8189 54.5757 64.2031 54.5757H59.6722V30.0219C59.6722 26.4062 56.7417 23.4756 53.1259 23.4756H26.4629V18.2751C26.4629 14.6594 29.3935 11.7266 33.0092 11.7266H64.2031C67.8189 11.7266 70.7517 14.6594 70.7517 18.2751V18.2751Z" fill="#D9DAE0"/>
<path d="M53.1216 66.3871H21.93C18.283 66.3871 15.3145 63.4208 15.3145 59.7716V30.0218C15.3145 26.3748 18.2807 23.4062 21.93 23.4062H53.1216C56.7687 23.4062 59.7372 26.3725 59.7372 30.0218V59.7738C59.7372 63.4208 56.7709 66.3893 53.1216 66.3893V66.3871ZM21.93 23.5402C18.3566 23.5402 15.4506 26.4462 15.4506 30.0195V59.7716C15.4506 63.3449 18.3566 66.251 21.93 66.251H53.1216C56.695 66.251 59.601 63.3449 59.601 59.7716V30.0218C59.601 26.4484 56.695 23.5424 53.1216 23.5424H21.93V23.5402Z" fill="url(#paint0_linear_296_4567)"/>
<path d="M53.1599 23.4453H21.9704C18.3538 23.4453 15.4219 26.3772 15.4219 29.9939V59.7437C15.4219 63.3604 18.3538 66.2923 21.9704 66.2923H53.1599C56.7765 66.2923 59.7084 63.3604 59.7084 59.7437V29.9939C59.7084 26.3772 56.7765 23.4453 53.1599 23.4453Z" fill="url(#paint1_linear_296_4567)"/>
<path d="M43.6368 49.9227H22.3149C21.3708 49.9227 20.6074 49.1571 20.6074 48.2153C20.6074 47.2711 21.373 46.5078 22.3149 46.5078H43.6368C44.5809 46.5078 45.3442 47.2734 45.3442 48.2153C45.3442 49.1594 44.5787 49.9227 43.6368 49.9227Z" fill="white"/>
<path d="M34.9545 57.3954H22.3149C21.3708 57.3954 20.6074 56.6298 20.6074 55.6879C20.6074 54.7438 21.373 53.9805 22.3149 53.9805H34.9545C35.8986 53.9805 36.6619 54.746 36.6619 55.6879C36.6619 56.632 35.8964 57.3954 34.9545 57.3954Z" fill="white"/>
<defs>
<linearGradient id="paint0_linear_296_4567" x1="15.3145" y1="44.8978" x2="59.7372" y2="44.8978" gradientUnits="userSpaceOnUse">
<stop stop-color="#C5FFFF"/>
<stop offset="1" stop-color="#B3D6D6"/>
</linearGradient>
<linearGradient id="paint1_linear_296_4567" x1="24.5367" y1="18.3366" x2="66.7476" y2="60.1034" gradientUnits="userSpaceOnUse">
<stop stop-color="#446BF8"/>
<stop offset="1" stop-color="#185EF1"/>
</linearGradient>
</defs>
</svg>
