<svg width="48" height="48" viewBox="0 0 48 48" fill="none" xmlns="http://www.w3.org/2000/svg">
<path fill-rule="evenodd" clip-rule="evenodd" d="M27.6709 27.6712C24.6746 30.7397 24.4639 34.587 24.21 43C32.0417 43 37.4676 42.9747 40.2531 40.2537C42.9732 37.4687 42.9992 31.7872 43 24.2102C34.5868 24.4641 30.7393 24.6748 27.6709 27.6712ZM5 24.2102C5 31.7872 5.02606 37.4687 7.74609 40.2537C10.5316 42.9747 15.9583 43 23.79 43C23.5361 34.587 23.3254 30.7397 20.3291 27.6712C17.2606 24.6748 13.4133 24.4641 5 24.2102ZM23.7905 5C15.9588 5.00074 10.5321 5.0268 7.74657 7.74699C5.02655 10.5319 5.00049 16.2135 5.00049 23.7905C13.4138 23.5366 17.2611 23.3259 20.3296 20.3295C23.3258 17.261 23.5366 13.4137 23.7905 5ZM27.6709 20.3295C24.6746 17.261 24.4639 13.4137 24.21 5C32.0417 5.00074 37.4676 5.0268 40.2531 7.74699C42.9732 10.5319 42.9992 16.2135 43 23.7905C34.5868 23.5366 30.7393 23.3259 27.6709 20.3295Z" fill="#2653F4"/>
</svg>
