<svg width="49" height="48" viewBox="0 0 49 48" fill="none" xmlns="http://www.w3.org/2000/svg">
<path d="M24.4755 24.6265C19.2964 24.6265 14.9917 20.3255 14.9917 15.2361C14.9917 9.9708 19.2964 5.66797 24.4774 5.66797C29.8344 5.66797 33.9612 9.96897 33.9612 15.2361C33.952 17.7351 32.9509 20.1281 31.1781 21.8892C29.4052 23.6504 27.0056 24.6356 24.5067 24.6283L24.4755 24.6265ZM24.4755 11.1991C22.2829 11.1991 20.6145 13.0416 20.6145 15.238C20.6145 17.4306 22.2829 19.099 24.4774 19.099C26.7599 19.099 28.3402 17.4306 28.3402 15.238C28.342 13.0398 26.7599 11.1991 24.4755 11.1991ZM28.2522 32.4401L33.611 37.6193C34.6652 38.7578 34.6652 40.4261 33.611 41.4803C32.4707 42.6188 30.7125 42.6188 29.8344 41.4803L24.4774 36.2131L19.2964 41.4803C18.7702 42.0065 18.0662 42.2686 17.2742 42.2686C16.66 42.2686 15.9579 42.0046 15.3419 41.4803C14.2877 40.4261 14.2877 38.7578 15.3419 37.6175L20.7869 32.4383C18.8205 31.856 16.9342 31.0314 15.1714 29.9835C13.8532 29.2813 13.591 27.5268 14.2932 26.2086C15.1714 24.8923 16.7517 24.5421 18.1579 25.4203C20.062 26.5823 22.2495 27.1971 24.4801 27.1971C26.7108 27.1971 28.8983 26.5823 30.8024 25.4203C32.2085 24.5421 33.875 24.8923 34.6652 26.2086C35.4572 27.5268 35.1034 29.2795 33.8732 29.9835C32.2067 31.0376 30.2744 31.8278 28.254 32.442L28.2522 32.4401Z" fill="#2653F4"/>
</svg>
