<svg width="38" height="38" viewBox="0 0 38 38" fill="none" xmlns="http://www.w3.org/2000/svg">
<path d="M12.6112 17.5631C14.3213 20.9238 17.0763 23.6669 20.4369 25.3888L23.0494 22.7763C23.37 22.4556 23.845 22.3488 24.2606 22.4913C25.5906 22.9306 27.0275 23.1681 28.5 23.1681C29.1531 23.1681 29.6875 23.7025 29.6875 24.3556V28.5C29.6875 29.1531 29.1531 29.6875 28.5 29.6875C17.3494 29.6875 8.3125 20.6506 8.3125 9.5C8.3125 8.84687 8.84687 8.3125 9.5 8.3125H13.6563C14.3094 8.3125 14.8438 8.84687 14.8438 9.5C14.8438 10.9844 15.0812 12.4094 15.5206 13.7394C15.6512 14.155 15.5562 14.6181 15.2237 14.9506L12.6112 17.5631Z" fill="black"/>
</svg>
