<svg width="41" height="40" viewBox="0 0 41 40" fill="none" xmlns="http://www.w3.org/2000/svg">
<path d="M20.5 0C17.8736 0 15.2728 0.517315 12.8463 1.52241C10.4198 2.5275 8.21504 4.00069 6.35786 5.85786C2.60714 9.60859 0.5 14.6957 0.5 20C0.5 25.3043 2.60714 30.3914 6.35786 34.1421C8.21504 35.9993 10.4198 37.4725 12.8463 38.4776C15.2728 39.4827 17.8736 40 20.5 40C25.8043 40 30.8914 37.8929 34.6421 34.1421C38.3929 30.3914 40.5 25.3043 40.5 20C40.5 17.3736 39.9827 14.7728 38.9776 12.3463C37.9725 9.91982 36.4993 7.71504 34.6421 5.85786C32.785 4.00069 30.5802 2.5275 28.1537 1.52241C25.7272 0.517315 23.1264 0 20.5 0ZM7.5 13H10.5C11.22 13 11.5 13.32 11.78 14.14C13.22 18.34 15.64 22 16.64 22C17.02 22 17.2 21.84 17.2 20.9V16.56C17.08 14.56 16.02 14.38 16.02 13.68C16.02 13.34 16.3 13 16.78 13H21.4C22.04 13 22.24 13.34 22.24 14.08V19.92C22.24 20.54 22.5 20.76 22.7 20.76C23.08 20.76 23.4 20.54 24.08 19.86C26.2 17.48 27.7 13.84 27.7 13.84C27.9 13.4 28.24 13 28.98 13H31.92C32.82 13 33.02 13.46 32.82 14.08C32.44 15.8 28.86 20.86 28.86 20.86C28.5 21.36 28.42 21.6 28.86 22.18C29.16 22.6 30.2 23.48 30.88 24.3C32.16 25.72 33.1 26.92 33.38 27.74C33.62 28.58 33.2 29 32.36 29H29.4C28.28 29 27.96 28.1 25.96 26.1C24.2 24.42 23.5 24.2 23.02 24.2C22.42 24.2 22.24 24.36 22.24 25.22V27.86C22.24 28.58 22.02 29 20.14 29C17.02 29 13.58 27.1 11.16 23.6C7.5 18.48 6.5 14.62 6.5 13.84C6.5 13.4 6.66 13 7.5 13Z" fill="#2853FF"/>
</svg>
