<svg width="72" height="72" viewBox="0 0 72 72" fill="none" xmlns="http://www.w3.org/2000/svg">
<path d="M23.895 33.2775C27.135 39.645 32.355 44.8425 38.7225 48.105L43.6725 43.155C44.28 42.5475 45.18 42.345 45.9675 42.615C48.4875 43.4475 51.21 43.8975 54 43.8975C55.2375 43.8975 56.25 44.91 56.25 46.1475V54C56.25 55.2375 55.2375 56.25 54 56.25C32.8725 56.25 15.75 39.1275 15.75 18C15.75 16.7625 16.7625 15.75 18 15.75H25.875C27.1125 15.75 28.125 16.7625 28.125 18C28.125 20.8125 28.575 23.5125 29.4075 26.0325C29.655 26.82 29.475 27.6975 28.845 28.3275L23.895 33.2775ZM54.36 17.3025L52.7625 15.7275L38.25 29.9025V20.25H36V33.75H49.5V31.5H40.1625L54.36 17.3025Z" fill="white"/>
</svg>
