<svg width="72" height="72" viewBox="0 0 72 72" fill="none" xmlns="http://www.w3.org/2000/svg">
<path fill-rule="evenodd" clip-rule="evenodd" d="M55.209 16.8991C52.7141 14.3877 49.7456 12.3964 46.4756 11.0405C43.2056 9.6846 39.699 8.99106 36.159 9.00006C21.315 9.00006 9.231 21.0811 9.225 35.9311C9.225 40.6771 10.464 45.3091 12.819 49.3951L9 63.348L23.277 59.6011C27.2262 61.7508 31.6506 62.8781 36.147 62.88H36.159C51 62.88 63.084 50.7991 63.09 35.9491C63.1002 32.4105 62.409 28.905 61.0562 25.6352C59.7035 22.3654 57.7162 19.3962 55.209 16.8991ZM48.438 41.5681C47.763 41.2291 44.457 39.6031 43.839 39.3781C43.224 39.1531 42.777 39.0421 42.327 39.7141C41.877 40.3861 40.587 41.9011 40.194 42.3511C39.801 42.8011 39.408 42.8551 38.736 42.5191C38.064 42.1831 35.895 41.4721 33.324 39.1801C31.323 37.3951 29.973 35.1931 29.58 34.5181C29.187 33.8431 29.538 33.4801 29.877 33.1441C30.18 32.8441 30.549 32.3581 30.885 31.9651C31.221 31.5721 31.332 31.2931 31.557 30.8431C31.782 30.3931 31.671 30.0001 31.5 29.6641C31.332 29.3251 29.985 26.0131 29.424 24.6661C28.881 23.3611 28.326 23.5351 27.912 23.5171C27.4832 23.4995 27.0541 23.4915 26.625 23.4931C26.2838 23.5017 25.948 23.5809 25.6388 23.7254C25.3296 23.8699 25.0535 24.0768 24.828 24.3331C24.21 25.0081 22.473 26.6341 22.473 29.9461C22.473 33.2581 24.885 36.4591 25.221 36.9091C25.557 37.3591 29.967 44.154 36.717 47.07C38.325 47.763 39.579 48.1771 40.554 48.4891C42.165 49.0021 43.632 48.9271 44.793 48.7561C46.086 48.5641 48.774 47.1301 49.335 45.5581C49.896 43.9861 49.896 42.6391 49.728 42.3571C49.56 42.0751 49.107 41.9041 48.438 41.5681Z" fill="white"/>
</svg>
