<svg width="346" height="36" viewBox="0 0 346 36" fill="none" xmlns="http://www.w3.org/2000/svg">
<g clip-path="url(#clip0_27768_47926)">
<path d="M252.868 0H244.422V35.4984H252.868V0Z" fill="white"/>
<path d="M229.804 0H197.414V35.4984H205.86V7.42621H228.756C229.618 7.46529 230.432 7.83473 231.028 8.45768C231.624 9.08062 231.957 9.90911 231.957 10.7708C231.957 11.6324 231.624 12.4609 231.028 13.0839C230.432 13.7068 229.618 14.0762 228.756 14.1153H217.577C215.591 14.1744 213.693 14.944 212.229 16.2838C210.765 17.6236 209.831 19.4443 209.6 21.4138C209.368 23.3833 209.853 25.3704 210.967 27.0125C212.08 28.6547 213.748 29.8425 215.666 30.3593L237.243 35.4984V28.0584L217.708 23.4222C217.457 23.3636 217.237 23.2149 217.089 23.0045C216.941 22.7941 216.875 22.5367 216.905 22.2813C216.935 22.0259 217.058 21.7904 217.251 21.6197C217.443 21.4489 217.692 21.3549 217.95 21.3555H229.804C231.209 21.3555 232.599 21.0793 233.896 20.5426C235.194 20.0059 236.372 19.2193 237.365 18.2277C238.357 17.2361 239.145 16.0589 239.681 14.7634C240.218 13.468 240.494 12.0797 240.493 10.6778V10.6778C240.494 9.27586 240.218 7.88753 239.681 6.59208C239.145 5.29664 238.357 4.11947 237.365 3.12786C236.372 2.13625 235.194 1.34962 233.896 0.812931C232.599 0.276238 231.209 -2.92135e-07 229.804 0V0Z" fill="white"/>
<path d="M290.3 0L278.625 35.0782L266.943 0H256.785L269.668 35.4984H278.48H278.763H287.575L300.458 0H290.3Z" fill="white"/>
<path d="M312.235 28.2031V21.3969H345.626V14.1015H312.235V7.29532H345.626V0H312.235H303.789V7.29532V14.1015V21.3969V28.2031V35.4984H312.235H345.626V28.2031H312.235Z" fill="white"/>
<path d="M182.66 0H150.297V35.4984H182.66C184.066 35.4984 185.458 35.2215 186.757 34.6836C188.056 34.1457 189.236 33.3574 190.23 32.3636C191.223 31.3699 192.011 30.1904 192.547 28.8925C193.083 27.5946 193.358 26.2039 193.355 24.8V10.6709C193.353 7.84015 192.226 5.12599 190.22 3.12501C188.214 1.12403 185.495 -5.89121e-07 182.66 0V0ZM184.964 17.7458V24.7242C184.964 25.6103 184.612 26.4601 183.984 27.0867C183.357 27.7133 182.505 28.0653 181.618 28.0653H158.722V7.39866H181.618C182.505 7.39866 183.357 7.75066 183.984 8.37724C184.612 9.00382 184.964 9.85365 184.964 10.7398V17.7458Z" fill="white"/>
<path d="M150.643 0H-140.402V35.4984H150.643V0Z" fill="#003FFF"/>
<path d="M71.169 23.7547H63.6508L62.3224 27.1971H55.5391L64.1878 7.44531H70.7451L79.3938 27.1971H72.4974L71.169 23.7547ZM69.3319 18.9578L67.4099 13.9916L65.488 18.9578H69.3319Z" fill="white"/>
<path d="M97.9255 22.0334V27.1971H79.7518V23.1057L88.7962 12.609H80.0344V7.44531H97.4732V11.5368L88.4288 22.0334H97.9255Z" fill="white"/>
<path d="M109.331 27.6486C106.297 27.6486 103.932 26.8303 102.236 25.1937C100.541 23.5571 99.6926 21.2622 99.6926 18.3088V7.44531H106.363V18.1113C106.363 19.5597 106.617 20.6132 107.126 21.2716C107.654 21.93 108.407 22.2592 109.387 22.2592C110.367 22.2592 111.111 21.93 111.62 21.2716C112.148 20.6132 112.411 19.5597 112.411 18.1113V7.44531H118.969V18.3088C118.969 21.2622 118.121 23.5571 116.425 25.1937C114.729 26.8303 112.364 27.6486 109.331 27.6486Z" fill="white"/>
<path d="M130.505 22.2309H128.696V27.1971H122.026V7.44531H131.551C133.379 7.44531 134.971 7.74629 136.328 8.34825C137.684 8.95021 138.73 9.81553 139.465 10.9442C140.2 12.0729 140.567 13.3897 140.567 14.8946C140.567 16.3054 140.247 17.5375 139.606 18.591C138.966 19.6444 138.042 20.4815 136.836 21.1023L140.991 27.1971H133.869L130.505 22.2309ZM133.841 14.8946C133.841 14.1609 133.614 13.5966 133.162 13.2016C132.71 12.7877 132.032 12.5808 131.127 12.5808H128.696V17.2083H131.127C132.032 17.2083 132.71 17.0108 133.162 16.6158C133.614 16.2019 133.841 15.6282 133.841 14.8946Z" fill="white"/>
</g>
<defs>
<clipPath id="clip0_27768_47926">
<rect width="345" height="35.4984" fill="white" transform="translate(0.5)"/>
</clipPath>
</defs>
</svg>
